<svg aria-label="A chart." style="max-height: 500px" xmlns:xlink="http://www.w3.org/1999/xlink" xmlns="http://www.w3.org/2000/svg" viewBox="179.4924 77.0424 417.99600000000004 255.7152" width="417.99600000000004" height="255.7152"><defs id="_ABSTRACT_RENDERER_ID_7"/><rect fill="#ffffff" stroke-width="0" stroke="none" height="409.8" width="819.6" y="0" x="0"/><g><text fill="#000000" stroke-width="0" stroke="none" font-weight="bold" font-size="25" font-family="Arial" y="53.25" x="137" text-anchor="start">Title</text><rect fill="#ffffff" fill-opacity="0" stroke-width="0" stroke="none" height="25" width="546" y="32" x="137"/></g><g><rect fill="#ffffff" fill-opacity="0" stroke-width="0" stroke="none" height="55" width="188" y="78" x="495"/><g><rect fill="#ffffff" fill-opacity="0" stroke-width="0" stroke="none" height="13" width="188" y="78" x="495"/><g><text fill="#222222" stroke-width="0" stroke="none" font-size="13" font-family="Arial" y="89.05" x="513" text-anchor="start">Direct-Utilities</text></g><circle fill="#3366cc" stroke-width="0" stroke="none" r="6.5" cy="84.5" cx="501.5"/></g><g><rect fill="#ffffff" fill-opacity="0" stroke-width="0" stroke="none" height="13" width="188" y="99" x="495"/><g><text fill="#222222" stroke-width="0" stroke="none" font-size="13" font-family="Arial" y="110.05" x="513" text-anchor="start">Raw-Material</text></g><circle fill="#dc3912" stroke-width="0" stroke="none" r="6.5" cy="105.5" cx="501.5"/></g><g><rect fill="#ffffff" fill-opacity="0" stroke-width="0" stroke="none" height="13" width="188" y="120" x="495"/><g><text fill="#222222" stroke-width="0" stroke="none" font-size="13" font-family="Arial" y="131.05" x="513" text-anchor="start">Packaging</text></g><circle fill="#ff9900" stroke-width="0" stroke="none" r="6.5" cy="126.5" cx="501.5"/></g></g><g><path fill="#3366cc" stroke-width="1" stroke="#ffffff" d="M306,205L306,79A126,126,0,0,1,431.0813181363548,189.8123782878293L306,205A0,0,0,0,0,306,205"/><text fill="#ffffff" stroke-width="0" stroke="none" font-size="13" font-family="Arial" y="138.0943750857347" x="350.80415970002" text-anchor="start">23.1%</text></g><g><path fill="#ff9900" stroke-width="1" stroke="#ffffff" d="M306,205L202.30403289739922,133.42384191187443A126,126,0,0,1,306,79L306,205A0,0,0,0,0,306,205"/><text fill="#ffffff" stroke-width="0" stroke="none" font-size="13" font-family="Arial" y="122.90407899050082" x="242.02471258921815" text-anchor="start">15.4%</text></g><g><path fill="#dc3912" stroke-width="1" stroke="#ffffff" d="M306,205L431.0813181363548,189.8123782878293A126,126,0,1,1,202.30403289739934,133.4238419118743L306,205A0,0,0,1,0,306,205"/><text fill="#ffffff" stroke-width="0" stroke="none" font-size="13" font-family="Arial" y="307.6773686452983" x="263.31377587135574" text-anchor="start">61.5%</text></g><g/></svg>