<svg aria-label="A chart." style="max-height: 500px" xmlns:xlink="http://www.w3.org/1999/xlink" xmlns="http://www.w3.org/2000/svg" viewBox="82.04196 67.617 778.94784 321.85692" width="778.94784" height="321.85692"><defs id="_ABSTRACT_RENDERER_ID_45"><clipPath id="_ABSTRACT_RENDERER_ID_46"><rect height="279" width="601" y="86" x="150"/></clipPath></defs><rect fill="#f3f2f1" stroke-width="0" stroke="none" height="450.78000000000003" width="901.5600000000001" y="0" x="0"/><g><text fill="#000000" stroke-width="0" stroke="none" font-weight="bold" font-size="25" font-family="Arial" y="59.25" x="150" text-anchor="start">Title</text><rect fill="#ffffff" fill-opacity="0" stroke-width="0" stroke="none" height="25" width="601" y="38" x="150"/></g><g><rect fill="#ffffff" fill-opacity="0" stroke-width="0" stroke="none" height="14" width="122.56000000000006" y="86" x="765"/><g><rect fill="#ffffff" fill-opacity="0" stroke-width="0" stroke="none" height="14" width="122.56000000000006" y="86" x="765"/><g><text fill="#222222" stroke-width="0" stroke="none" font-size="14" font-family="Arial" y="97.9" x="798" text-anchor="start">Income</text></g><rect fill="#047b4b" fill-opacity="0.3" stroke-width="0" stroke="none" height="7" width="28" y="93" x="765"/><path fill="none" fill-opacity="1" stroke-width="2" stroke="#047b4b" d="M765,93L793,93"/></g></g><g><rect fill="#ffffff" stroke-width="0" stroke="none" height="279" width="601" y="86" x="150"/><g clip-path="url(https://www.statskingdom.com/chart-maker.html#_ABSTRACT_RENDERER_ID_46)"><g><rect fill="#cccccc" stroke-width="0" stroke="none" height="1" width="601" y="364" x="150"/><rect fill="#cccccc" stroke-width="0" stroke="none" height="1" width="601" y="308" x="150"/><rect fill="#cccccc" stroke-width="0" stroke="none" height="1" width="601" y="253" x="150"/><rect fill="#cccccc" stroke-width="0" stroke="none" height="1" width="601" y="197" x="150"/><rect fill="#cccccc" stroke-width="0" stroke="none" height="1" width="601" y="142" x="150"/><rect fill="#cccccc" stroke-width="0" stroke="none" height="1" width="601" y="86" x="150"/><rect fill="#ebebeb" stroke-width="0" stroke="none" height="1" width="601" y="336" x="150"/><rect fill="#ebebeb" stroke-width="0" stroke="none" height="1" width="601" y="281" x="150"/><rect fill="#ebebeb" stroke-width="0" stroke="none" height="1" width="601" y="225" x="150"/><rect fill="#ebebeb" stroke-width="0" stroke="none" height="1" width="601" y="169" x="150"/><rect fill="#ebebeb" stroke-width="0" stroke="none" height="1" width="601" y="114" x="150"/></g><g><g><path fill="#047b4b" fill-opacity="0.3" stroke-width="0" stroke="none" d="M750.5,920.5L750.5,920.5L750.5,197.70000000000005L630.5,86.5L510.5,225.5L390.5,308.9L270.5,364.5L150.5,142.10000000000002L150.5,920.5L150.5,920.5Z"/></g></g><g><path fill="none" fill-opacity="1" stroke-width="2" stroke="#047b4b" d="M750.5,197.70000000000005L630.5,86.5L510.5,225.5L390.5,308.9L270.5,364.5L150.5,142.10000000000002"/></g></g><g/><g><g><text fill="#222222" stroke-width="0" stroke="none" font-size="14" font-family="Arial" y="385.9" x="150.5" text-anchor="middle">Jul</text></g><g><text fill="#222222" stroke-width="0" stroke="none" font-size="14" font-family="Arial" y="385.9" x="270.5" text-anchor="middle">Jun</text></g><g><text fill="#222222" stroke-width="0" stroke="none" font-size="14" font-family="Arial" y="385.9" x="390.5" text-anchor="middle">May</text></g><g><text fill="#222222" stroke-width="0" stroke="none" font-size="14" font-family="Arial" y="385.9" x="510.5" text-anchor="middle">Apr</text></g><g><text fill="#222222" stroke-width="0" stroke="none" font-size="14" font-family="Arial" y="385.9" x="630.5" text-anchor="middle">Mar</text></g><g><text fill="#222222" stroke-width="0" stroke="none" font-size="14" font-family="Arial" y="385.9" x="750.5" text-anchor="middle">Feb</text></g><g><text fill="#444444" stroke-width="0" stroke="none" font-size="14" font-family="Arial" y="369.4" x="136" text-anchor="end">200,000</text></g><g><text fill="#444444" stroke-width="0" stroke="none" font-size="14" font-family="Arial" y="313.79999999999995" x="136" text-anchor="end">220,000</text></g><g><text fill="#444444" stroke-width="0" stroke="none" font-size="14" font-family="Arial" y="258.2" x="136" text-anchor="end">240,000</text></g><g><text fill="#444444" stroke-width="0" stroke="none" font-size="14" font-family="Arial" y="202.6" x="136" text-anchor="end">260,000</text></g><g><text fill="#444444" stroke-width="0" stroke="none" font-size="14" font-family="Arial" y="147" x="136" text-anchor="end">280,000</text></g><g><text fill="#444444" stroke-width="0" stroke="none" font-size="14" font-family="Arial" y="91.4" x="136" text-anchor="end">300,000</text></g></g></g><g/></svg>