<?xml version="1.0" encoding="iso-8859-1"?>
<!-- Uploaded to: SVG Repo, www.svgrepo.com, Generator: SVG Repo Mixer Tools -->
<svg height="800px" width="800px" version="1.1" id="Layer_1" xmlns="http://www.w3.org/2000/svg" xmlns:xlink="http://www.w3.org/1999/xlink" 
	 viewBox="0 0 512 512" xml:space="preserve">
<circle style="fill:#366695;" cx="256" cy="256" r="256"/>
<path style="fill:#273B7A;" d="M326.868,184.646L256,113.778L155.569,356.592l148.97,150.793C422.709,484.702,512,380.787,512,256
	c0-0.876-0.024-1.746-0.033-2.62L386.272,128.243L326.868,184.646z"/>
<path style="fill:#FFC91B;" d="M256,256V113.778c-78.546,0-142.222,63.674-142.222,142.222c0,78.546,63.676,142.222,142.222,142.222
	c28.946,0,55.858-8.67,78.322-23.523L256,256z"/>
<path style="fill:#FFD05A;" d="M256,256V113.778c-78.546,0-142.222,63.674-142.222,142.222c0,78.546,63.676,142.222,142.222,142.222
	V256z"/>
<path style="fill:#FFEDB5;" d="M398.222,256H256l78.322,118.7C372.815,349.248,398.222,305.6,398.222,256z"/>
<path style="fill:#FF5419;" d="M426.667,227.556c0-78.546-63.676-142.222-142.222-142.222v142.222H426.667z"/>
</svg>