<svg aria-label="A chart." style="max-height: 500px" xmlns:xlink="http://www.w3.org/1999/xlink" xmlns="http://www.w3.org/2000/svg" viewBox="179.4924 77.0424 463.07399999999996 254.8956" width="463.07399999999996" height="254.8956"><defs id="_ABSTRACT_RENDERER_ID_15"/><rect fill="#ffffff" stroke-width="0" stroke="none" height="409.8" width="819.6" y="0" x="0"/><g><text fill="#000000" stroke-width="0" stroke="none" font-weight="bold" font-size="25" font-family="Arial" y="53.25" x="137" text-anchor="start">Title</text><rect fill="#ffffff" fill-opacity="0" stroke-width="0" stroke="none" height="25" width="546" y="32" x="137"/></g><g><rect fill="#ffffff" fill-opacity="0" stroke-width="0" stroke="none" height="76" width="188" y="78" x="495"/><g><rect fill="#ffffff" fill-opacity="0" stroke-width="0" stroke="none" height="13" width="188" y="78" x="495"/><g><text fill="#222222" stroke-width="0" stroke="none" font-size="13" font-family="Arial" y="89.05" x="513" text-anchor="start">PPE</text></g><circle fill="#3366cc" stroke-width="0" stroke="none" r="6.5" cy="84.5" cx="501.5"/></g><g><rect fill="#ffffff" fill-opacity="0" stroke-width="0" stroke="none" height="13" width="188" y="99" x="495"/><g><text fill="#222222" stroke-width="0" stroke="none" font-size="13" font-family="Arial" y="110.05" x="513" text-anchor="start">Infrastructure</text></g><circle fill="#dc3912" stroke-width="0" stroke="none" r="6.5" cy="105.5" cx="501.5"/></g><g><rect fill="#ffffff" fill-opacity="0" stroke-width="0" stroke="none" height="13" width="188" y="120" x="495"/><g><text fill="#222222" stroke-width="0" stroke="none" font-size="13" font-family="Arial" y="131.05" x="513" text-anchor="start">Product-Development</text></g><circle fill="#ff9900" stroke-width="0" stroke="none" r="6.5" cy="126.5" cx="501.5"/></g><g><rect fill="#ffffff" fill-opacity="0" stroke-width="0" stroke="none" height="13" width="188" y="141" x="495"/><g><text fill="#222222" stroke-width="0" stroke="none" font-size="13" font-family="Arial" y="152.05" x="513" text-anchor="start">Securities-Bonds</text></g><circle fill="#109618" stroke-width="0" stroke="none" r="6.5" cy="147.5" cx="501.5"/></g></g><g><path fill="#3366cc" stroke-width="1" stroke="#ffffff" d="M306,205L306,79A126,126,0,0,1,415.1192008768393,268L306,205A0,0,0,0,0,306,205"/><text fill="#ffffff" stroke-width="0" stroke="none" font-size="13" font-family="Arial" y="162.71474784380877" x="368.621036319823" text-anchor="start">33.3%</text></g><g><path fill="#109618" stroke-width="1" stroke="#ffffff" d="M306,205L196.88079912316073,142A126,126,0,0,1,306,79L306,205A0,0,0,0,0,306,205"/><text fill="#ffffff" stroke-width="0" stroke="none" font-size="13" font-family="Arial" y="125.20190771227236" x="238.80160621204908" text-anchor="start">16.7%</text></g><g><path fill="#ff9900" stroke-width="1" stroke="#ffffff" d="M306,205L243.00000000000003,314.1192008768393A126,126,0,0,1,196.88079912316073,142L306,205A0,0,0,0,0,306,205"/><text fill="#ffffff" stroke-width="0" stroke="none" font-size="13" font-family="Arial" y="235.10140941651002" x="197.64084185259074" text-anchor="start">25%</text></g><g><path fill="#dc3912" stroke-width="1" stroke="#ffffff" d="M306,205L415.1192008768393,268A126,126,0,0,1,243.00000000000006,314.11920087683933L306,205A0,0,0,0,0,306,205"/><text fill="#ffffff" stroke-width="0" stroke="none" font-size="13" font-family="Arial" y="308.87841861815815" x="319.6149695541961" text-anchor="start">25%</text></g><g/></svg>