<svg xmlns="http://www.w3.org/2000/svg" aria-label="A chart." style="max-height: 500px" viewBox="82.04196 37.865520000000004 781.6525200000001 350.70684000000006" width="781.6525200000001" height="350.70684000000006">
  <defs id="_ABSTRACT_RENDERER_ID_34"/>
  <rect fill="#ffffff" stroke-width="0" stroke="none" height="450.78000000000003" width="901.5600000000001" y="0" x="0"/>
  <g>
    <text style="white-space: pre;" fill="#000000" stroke-width="0" stroke="none" font-weight="bold" font-size="25" font-family="Arial" y="59.25" x="150" text-anchor="start">Comparison Graph</text>
  </g>
  <g>
    <rect fill="#ffffff" fill-opacity="0" stroke-width="0" stroke="none" height="37" width="122.56000000000006" y="86" x="765"/>
    <g>
      <rect fill="#ffffff" fill-opacity="0" stroke-width="0" stroke="none" height="14" width="122.56000000000006" y="86" x="765"/>
      <g>
        <text style="white-space: pre;" fill="#222222" stroke-width="0" stroke="none" font-size="14" font-family="Arial" y="97.9" x="798" text-anchor="start">Income</text>
      </g>
      <rect fill="#047b4b" fill-opacity="0.3" stroke-width="0" stroke="none" height="7" width="28" y="93" x="765"/>
      <path fill="none" fill-opacity="1" stroke-width="2" stroke="#047b4b" d="M765,93L793,93"/>
    </g>
    <g>
      <rect fill="#ffffff" fill-opacity="0" stroke-width="0" stroke="none" height="14" width="122.56000000000006" y="109" x="765"/>
      <g>
        <text style="white-space: pre;" fill="#222222" stroke-width="0" stroke="none" font-size="14" font-family="Arial" y="120.9" x="798" text-anchor="start">Expenses</text>
      </g>
      <rect fill="#ee6411" fill-opacity="0.3" stroke-width="0" stroke="none" height="7" width="28" y="116" x="765"/>
      <path fill="none" fill-opacity="1" stroke-width="2" stroke="#ee6411" d="M765,116L793,116"/>
    </g>
  </g>
  <g>
    <rect fill="#ffffff" stroke-width="0" stroke="none" height="279" width="601" y="86" x="150"/>
    <g clip-path="url(https://www.statskingdom.com/chart-maker.html#_ABSTRACT_RENDERER_ID_35)">
      <g>
        <rect fill="#cccccc" stroke-width="0" stroke="none" height="1" width="601" y="364" x="150"/>
        <rect fill="#cccccc" stroke-width="0" stroke="none" height="1" width="601" y="318" x="150"/>
        <rect fill="#cccccc" stroke-width="0" stroke="none" height="1" width="601" y="271" x="150"/>
        <rect fill="#cccccc" stroke-width="0" stroke="none" height="1" width="601" y="225" x="150"/>
        <rect fill="#cccccc" stroke-width="0" stroke="none" height="1" width="601" y="179" x="150"/>
        <rect fill="#cccccc" stroke-width="0" stroke="none" height="1" width="601" y="132" x="150"/>
        <rect fill="#cccccc" stroke-width="0" stroke="none" height="1" width="601" y="86" x="150"/>
        <rect fill="#ebebeb" stroke-width="0" stroke="none" height="1" width="601" y="341" x="150"/>
        <rect fill="#ebebeb" stroke-width="0" stroke="none" height="1" width="601" y="295" x="150"/>
        <rect fill="#ebebeb" stroke-width="0" stroke="none" height="1" width="601" y="248" x="150"/>
        <rect fill="#ebebeb" stroke-width="0" stroke="none" height="1" width="601" y="202" x="150"/>
        <rect fill="#ebebeb" stroke-width="0" stroke="none" height="1" width="601" y="156" x="150"/>
        <rect fill="#ebebeb" stroke-width="0" stroke="none" height="1" width="601" y="109" x="150"/>
      </g>
      <g>
        <g>
          <path fill="#047b4b" fill-opacity="0.3" stroke-width="0" stroke="none" d="M750.5,364.5L750.5,364.5L750.5,123.56666666666666L664.7857142857143,86.5L579.0714285714286,132.83333333333334L493.3571428571429,160.63333333333333L407.64285714285717,179.16666666666666L321.92857142857144,105.0333333333333L321.92857142857144,364.5L321.92857142857144,364.5Z"/>
        </g>
        <g>
          <path fill="#ee6411" fill-opacity="0.3" stroke-width="0" stroke="none" d="M750.5,364.5L750.5,364.5L750.5,179.16666666666666L664.7857142857143,151.36666666666667L579.0714285714286,253.3L493.3571428571429,225.5L407.64285714285717,197.7L321.92857142857144,225.5L236.21428571428578,364.5L150.5,364.5L150.5,364.5Z"/>
        </g>
      </g>
      <g>
        <rect fill="#333333" stroke-width="0" stroke="none" height="1" width="601" y="364" x="150"/>
      </g>
      <g>
        <path fill="none" fill-opacity="1" stroke-width="2" stroke="#047b4b" d="M750.5,123.56666666666666L664.7857142857143,86.5L579.0714285714286,132.83333333333334L493.3571428571429,160.63333333333333L407.64285714285717,179.16666666666666L321.92857142857144,105.0333333333333"/>
        <path fill="none" fill-opacity="1" stroke-width="2" stroke="#ee6411" d="M750.5,179.16666666666666L664.7857142857143,151.36666666666667L579.0714285714286,253.3L493.3571428571429,225.5L407.64285714285717,197.7L321.92857142857144,225.5L236.21428571428578,364.5L150.5,364.5"/>
      </g>
    </g>
    <g/>
    <g>
      <g>
        <text style="white-space: pre;" fill="#222222" stroke-width="0" stroke="none" font-size="14" font-family="Arial" y="385.9" x="321.92857142857144" text-anchor="middle">Jul</text>
      </g>
      <g>
        <text style="white-space: pre;" fill="#222222" stroke-width="0" stroke="none" font-size="14" font-family="Arial" y="385.9" x="407.64285714285717" text-anchor="middle">Jun</text>
      </g>
      <g>
        <text style="white-space: pre;" fill="#222222" stroke-width="0" stroke="none" font-size="14" font-family="Arial" y="385.9" x="493.3571428571429" text-anchor="middle">May</text>
      </g>
      <g>
        <text style="white-space: pre;" fill="#222222" stroke-width="0" stroke="none" font-size="14" font-family="Arial" y="385.9" x="579.0714285714286" text-anchor="middle">Apr</text>
      </g>
      <g>
        <text style="white-space: pre;" fill="#222222" stroke-width="0" stroke="none" font-size="14" font-family="Arial" y="385.9" x="664.7857142857143" text-anchor="middle">Mar</text>
      </g>
      <g>
        <text style="white-space: pre;" fill="#222222" stroke-width="0" stroke="none" font-size="14" font-family="Arial" y="385.9" x="750.5" text-anchor="middle">Feb</text>
      </g>
      <g>
        <text style="white-space: pre;" fill="#444444" stroke-width="0" stroke="none" font-size="14" font-family="Arial" y="369.4" x="136" text-anchor="end">0</text>
      </g>
      <g>
        <text style="white-space: pre;" fill="#444444" stroke-width="0" stroke="none" font-size="14" font-family="Arial" y="323.06669999999997" x="136" text-anchor="end">50,000</text>
      </g>
      <g>
        <text style="white-space: pre;" fill="#444444" stroke-width="0" stroke="none" font-size="14" font-family="Arial" y="276.7333" x="136" text-anchor="end">100,000</text>
      </g>
      <g>
        <text style="white-space: pre;" fill="#444444" stroke-width="0" stroke="none" font-size="14" font-family="Arial" y="230.4" x="136" text-anchor="end">150,000</text>
      </g>
      <g>
        <text style="white-space: pre;" fill="#444444" stroke-width="0" stroke="none" font-size="14" font-family="Arial" y="184.0667" x="136" text-anchor="end">200,000</text>
      </g>
      <g>
        <text style="white-space: pre;" fill="#444444" stroke-width="0" stroke="none" font-size="14" font-family="Arial" y="137.7333" x="136" text-anchor="end">250,000</text>
      </g>
      <g>
        <text style="white-space: pre;" fill="#444444" stroke-width="0" stroke="none" font-size="14" font-family="Arial" y="91.4" x="136" text-anchor="end">300,000</text>
      </g>
    </g>
  </g>
  <g/>
</svg>