<svg aria-label="A chart." style="max-height: 500px" xmlns:xlink="http://www.w3.org/1999/xlink" xmlns="http://www.w3.org/2000/svg" viewBox="176.214 76.2228 411.4392 255.7152" width="411.4392" height="255.7152"><defs id="_ABSTRACT_RENDERER_ID_0"/><rect fill="#ffffff" stroke-width="0" stroke="none" height="409.8" width="819.6" y="0" x="0"/><g><text fill="#000000" stroke-width="0" stroke="none" font-weight="bold" font-size="25" font-family="Arial" y="53.25" x="137" text-anchor="start">Title</text><rect fill="#ffffff" fill-opacity="0" stroke-width="0" stroke="none" height="25" width="546" y="32" x="137"/></g><g><rect fill="#ffffff" fill-opacity="0" stroke-width="0" stroke="none" height="34" width="188" y="78" x="495"/><g><rect fill="#ffffff" fill-opacity="0" stroke-width="0" stroke="none" height="13" width="188" y="78" x="495"/><g><text fill="#222222" stroke-width="0" stroke="none" font-size="13" font-family="Arial" y="89.05" x="513" text-anchor="start">Direct-Exp</text></g><circle fill="#3366cc" stroke-width="0" stroke="none" r="6.5" cy="84.5" cx="501.5"/></g><g><rect fill="#ffffff" fill-opacity="0" stroke-width="0" stroke="none" height="13" width="188" y="99" x="495"/><g><text fill="#222222" stroke-width="0" stroke="none" font-size="13" font-family="Arial" y="110.05" x="513" text-anchor="start">Indirect-Exp</text></g><circle fill="#dc3912" stroke-width="0" stroke="none" r="6.5" cy="105.5" cx="501.5"/></g></g><g><path fill="#dc3912" stroke-width="1" stroke="#ffffff" d="M306,205L231.9390582111484,306.93614129124336A126,126,0,0,1,306,79L306,205A0,0,0,0,0,306,205"/><text fill="#ffffff" stroke-width="0" stroke="none" font-size="13" font-family="Arial" y="179.07878603047885" x="199.21924640826006" text-anchor="start">40%</text></g><g><path fill="#3366cc" stroke-width="1" stroke="#ffffff" d="M306,205L306,79A126,126,0,1,1,231.9390582111484,306.93614129124336L306,205A0,0,0,1,0,306,205"/><text fill="#ffffff" stroke-width="0" stroke="none" font-size="13" font-family="Arial" y="240.02121396952117" x="386.78075359173994" text-anchor="start">60%</text></g><g/></svg>