<svg aria-label="A chart." style="max-height: 500px" xmlns:xlink="http://www.w3.org/1999/xlink" xmlns="http://www.w3.org/2000/svg" viewBox="74.5836 67.2072 615.5196 286.0404" width="615.5196" height="286.0404"><defs id="_ABSTRACT_RENDERER_ID_5"><clipPath id="_ABSTRACT_RENDERER_ID_6"><rect height="253" width="546" y="78" x="137"/></clipPath><filter id="_ABSTRACT_RENDERER_ID_7"><feGaussianBlur stdDeviation="2" in="SourceAlpha"/><feOffset dy="1" dx="1"/><feComponentTransfer><feFuncA type="linear"/></feComponentTransfer><feMerge><feMergeNode/><feMergeNode in="SourceGraphic"/></feMerge></filter></defs><rect fill="#ffffff" stroke-width="0" stroke="none" height="409.8" width="819.6" y="0" x="0"/><g><text fill="#000000" stroke-width="0" stroke="none" font-weight="bold" font-size="25" font-family="Arial" y="53.25" x="137" text-anchor="start">Title</text><rect fill="#ffffff" fill-opacity="0" stroke-width="0" stroke="none" height="25" width="546" y="32" x="137"/></g><g><rect fill="#ffffff" fill-opacity="0" stroke-width="0" stroke="none" height="13" width="110.60000000000002" y="78" x="696"/><g><rect fill="#ffffff" fill-opacity="0" stroke-width="0" stroke="none" height="13" width="110.60000000000002" y="78" x="696"/><g><text fill="#222222" stroke-width="0" stroke="none" font-size="13" font-family="Arial" y="89.05" x="727" text-anchor="start">Group-1</text></g><rect fill="#fb4f04" stroke-width="0" stroke="none" height="13" width="26" y="78" x="696"/></g></g><g><rect fill="#ffffff" stroke-width="0" stroke="none" height="253" width="546" y="78" x="137"/><g clip-path="url(https://www.statskingdom.com/chart-maker.html#_ABSTRACT_RENDERER_ID_6)"><g><rect fill="#cccccc" stroke-width="0" stroke="none" height="1" width="546" y="330" x="137"/><rect fill="#cccccc" stroke-width="0" stroke="none" height="1" width="546" y="280" x="137"/><rect fill="#cccccc" stroke-width="0" stroke="none" height="1" width="546" y="229" x="137"/><rect fill="#cccccc" stroke-width="0" stroke="none" height="1" width="546" y="179" x="137"/><rect fill="#cccccc" stroke-width="0" stroke="none" height="1" width="546" y="128" x="137"/><rect fill="#cccccc" stroke-width="0" stroke="none" height="1" width="546" y="78" x="137"/><rect fill="#ebebeb" stroke-width="0" stroke="none" height="1" width="546" y="305" x="137"/><rect fill="#ebebeb" stroke-width="0" stroke="none" height="1" width="546" y="254" x="137"/><rect fill="#ebebeb" stroke-width="0" stroke="none" height="1" width="546" y="204" x="137"/><rect fill="#ebebeb" stroke-width="0" stroke="none" height="1" width="546" y="154" x="137"/><rect fill="#ebebeb" stroke-width="0" stroke="none" height="1" width="546" y="103" x="137"/></g><g><rect fill="#fb4f04" stroke-width="0" stroke="none" height="150" width="46" y="180" x="160"/><rect fill="#fb4f04" stroke-width="0" stroke="none" height="180" width="45" y="150" x="251"/><rect fill="#fb4f04" stroke-width="0" stroke="none" height="150" width="45" y="180" x="342"/><rect fill="#fb4f04" stroke-width="0" stroke="none" height="120" width="45" y="210" x="433"/><rect fill="#fb4f04" stroke-width="0" stroke="none" height="251" width="45" y="79" x="524"/><rect fill="#fb4f04" stroke-width="0" stroke="none" height="201" width="46" y="129" x="614"/></g><g><rect fill="#333333" stroke-width="0" stroke="none" height="1" width="546" y="330" x="137"/></g></g><g/><g><g><text fill="#222222" stroke-width="0" stroke="none" font-size="13" font-family="Arial" y="350.05" x="182.91666666666666" text-anchor="middle">Feb</text></g><g><text fill="#222222" stroke-width="0" stroke="none" font-size="13" font-family="Arial" y="350.05" x="273.75" text-anchor="middle">Mar</text></g><g><text fill="#222222" stroke-width="0" stroke="none" font-size="13" font-family="Arial" y="350.05" x="364.5833333333333" text-anchor="middle">Apr</text></g><g><text fill="#222222" stroke-width="0" stroke="none" font-size="13" font-family="Arial" y="350.05" x="455.41666666666663" text-anchor="middle">May</text></g><g><text fill="#222222" stroke-width="0" stroke="none" font-size="13" font-family="Arial" y="350.05" x="546.25" text-anchor="middle">Jun</text></g><g><text fill="#222222" stroke-width="0" stroke="none" font-size="13" font-family="Arial" y="350.05" x="637.0833333333333" text-anchor="middle">Jul</text></g><g><text fill="#444444" stroke-width="0" stroke="none" font-size="13" font-family="Arial" y="335.05" x="124" text-anchor="end">0</text></g><g><text fill="#444444" stroke-width="0" stroke="none" font-size="13" font-family="Arial" y="284.65000000000003" x="124" text-anchor="end">50,000</text></g><g><text fill="#444444" stroke-width="0" stroke="none" font-size="13" font-family="Arial" y="234.25" x="124" text-anchor="end">100,000</text></g><g><text fill="#444444" stroke-width="0" stroke="none" font-size="13" font-family="Arial" y="183.85000000000002" x="124" text-anchor="end">150,000</text></g><g><text fill="#444444" stroke-width="0" stroke="none" font-size="13" font-family="Arial" y="133.45000000000002" x="124" text-anchor="end">200,000</text></g><g><text fill="#444444" stroke-width="0" stroke="none" font-size="13" font-family="Arial" y="83.05" x="124" text-anchor="end">250,000</text></g></g></g><g/></svg>