<svg aria-label="A chart." style="max-height: 500px" xmlns:xlink="http://www.w3.org/1999/xlink" xmlns="http://www.w3.org/2000/svg" viewBox="82.04196 67.617 778.94784 321.85692" width="778.94784" height="321.85692"><defs id="_ABSTRACT_RENDERER_ID_47"><clipPath id="_ABSTRACT_RENDERER_ID_48"><rect height="279" width="601" y="86" x="150"/></clipPath><filter id="_ABSTRACT_RENDERER_ID_49"><feGaussianBlur stdDeviation="2" in="SourceAlpha"/><feOffset dy="1" dx="1"/><feComponentTransfer><feFuncA type="linear"/></feComponentTransfer><feMerge><feMergeNode/><feMergeNode in="SourceGraphic"/></feMerge></filter></defs><rect fill="#f3f2f1" stroke-width="0" stroke="none" height="450.78000000000003" width="901.5600000000001" y="0" x="0"/><g><text fill="#000000" stroke-width="0" stroke="none" font-weight="bold" font-size="25" font-family="Arial" y="59.25" x="150" text-anchor="start">Title</text><rect fill="#ffffff" fill-opacity="0" stroke-width="0" stroke="none" height="25" width="601" y="38" x="150"/></g><g><rect fill="#ffffff" fill-opacity="0" stroke-width="0" stroke="none" height="14" width="122.56000000000006" y="86" x="765"/><g><rect fill="#ffffff" fill-opacity="0" stroke-width="0" stroke="none" height="14" width="122.56000000000006" y="86" x="765"/><g><text fill="#222222" stroke-width="0" stroke="none" font-size="14" font-family="Arial" y="97.9" x="798" text-anchor="start">Income</text></g><rect fill="#047b4b" stroke-width="0" stroke="none" height="14" width="28" y="86" x="765"/></g></g><g><rect fill="#ffffff" stroke-width="0" stroke="none" height="279" width="601" y="86" x="150"/><g clip-path="url(https://www.statskingdom.com/chart-maker.html#_ABSTRACT_RENDERER_ID_48)"><g><rect fill="#cccccc" stroke-width="0" stroke="none" height="1" width="601" y="364" x="150"/><rect fill="#cccccc" stroke-width="0" stroke="none" height="1" width="601" y="318" x="150"/><rect fill="#cccccc" stroke-width="0" stroke="none" height="1" width="601" y="271" x="150"/><rect fill="#cccccc" stroke-width="0" stroke="none" height="1" width="601" y="225" x="150"/><rect fill="#cccccc" stroke-width="0" stroke="none" height="1" width="601" y="179" x="150"/><rect fill="#cccccc" stroke-width="0" stroke="none" height="1" width="601" y="132" x="150"/><rect fill="#cccccc" stroke-width="0" stroke="none" height="1" width="601" y="86" x="150"/><rect fill="#ebebeb" stroke-width="0" stroke="none" height="1" width="601" y="341" x="150"/><rect fill="#ebebeb" stroke-width="0" stroke="none" height="1" width="601" y="295" x="150"/><rect fill="#ebebeb" stroke-width="0" stroke="none" height="1" width="601" y="248" x="150"/><rect fill="#ebebeb" stroke-width="0" stroke="none" height="1" width="601" y="202" x="150"/><rect fill="#ebebeb" stroke-width="0" stroke="none" height="1" width="601" y="156" x="150"/><rect fill="#ebebeb" stroke-width="0" stroke="none" height="1" width="601" y="109" x="150"/></g><g><rect fill="#047b4b" stroke-width="0" stroke="none" height="601" width="50" y="180" x="676"/><rect fill="#047b4b" stroke-width="0" stroke="none" height="694" width="50" y="87" x="576"/><rect fill="#047b4b" stroke-width="0" stroke="none" height="578" width="50" y="203" x="476"/><rect fill="#047b4b" stroke-width="0" stroke="none" height="509" width="50" y="272" x="376"/><rect fill="#047b4b" stroke-width="0" stroke="none" height="462" width="50" y="319" x="276"/><rect fill="#047b4b" stroke-width="0" stroke="none" height="648" width="50" y="133" x="176"/></g></g><g/><g><g><text fill="#222222" stroke-width="0" stroke="none" font-size="14" font-family="Arial" y="385.9" x="200.5" text-anchor="middle">Jul</text></g><g><text fill="#222222" stroke-width="0" stroke="none" font-size="14" font-family="Arial" y="385.9" x="300.5" text-anchor="middle">Jun</text></g><g><text fill="#222222" stroke-width="0" stroke="none" font-size="14" font-family="Arial" y="385.9" x="400.5" text-anchor="middle">May</text></g><g><text fill="#222222" stroke-width="0" stroke="none" font-size="14" font-family="Arial" y="385.9" x="500.5" text-anchor="middle">Apr</text></g><g><text fill="#222222" stroke-width="0" stroke="none" font-size="14" font-family="Arial" y="385.9" x="600.5" text-anchor="middle">Mar</text></g><g><text fill="#222222" stroke-width="0" stroke="none" font-size="14" font-family="Arial" y="385.9" x="700.5" text-anchor="middle">Feb</text></g><g><text fill="#444444" stroke-width="0" stroke="none" font-size="14" font-family="Arial" y="369.4" x="136" text-anchor="end">180,000</text></g><g><text fill="#444444" stroke-width="0" stroke="none" font-size="14" font-family="Arial" y="323.06669999999997" x="136" text-anchor="end">200,000</text></g><g><text fill="#444444" stroke-width="0" stroke="none" font-size="14" font-family="Arial" y="276.7333" x="136" text-anchor="end">220,000</text></g><g><text fill="#444444" stroke-width="0" stroke="none" font-size="14" font-family="Arial" y="230.4" x="136" text-anchor="end">240,000</text></g><g><text fill="#444444" stroke-width="0" stroke="none" font-size="14" font-family="Arial" y="184.0667" x="136" text-anchor="end">260,000</text></g><g><text fill="#444444" stroke-width="0" stroke="none" font-size="14" font-family="Arial" y="137.7333" x="136" text-anchor="end">280,000</text></g><g><text fill="#444444" stroke-width="0" stroke="none" font-size="14" font-family="Arial" y="91.4" x="136" text-anchor="end">300,000</text></g></g></g><g/></svg>