<svg aria-label="A chart." style="max-height: 500px" xmlns:xlink="http://www.w3.org/1999/xlink" xmlns="http://www.w3.org/2000/svg" viewBox="191.13072 82.04196 455.28780000000006 285.79452000000003" width="455.28780000000006" height="285.79452000000003"><defs id="_ABSTRACT_RENDERER_ID_52"><filter id="_ABSTRACT_RENDERER_ID_53"><feGaussianBlur stdDeviation="2" in="SourceAlpha"/><feOffset dy="1" dx="1"/><feComponentTransfer><feFuncA type="linear"/></feComponentTransfer><feMerge><feMergeNode/><feMergeNode in="SourceGraphic"/></feMerge></filter></defs><rect fill="#f3f2f1" stroke-width="0" stroke="none" height="450.78000000000003" width="901.5600000000001" y="0" x="0"/><g><text fill="#000000" stroke-width="0" stroke="none" font-weight="bold" font-size="25" font-family="Arial" y="59.25" x="150" text-anchor="start">Sources</text><rect fill="#ffffff" fill-opacity="0" stroke-width="0" stroke="none" height="25" width="601" y="38" x="150"/></g><g><rect fill="#ffffff" fill-opacity="0" stroke-width="0" stroke="none" height="106" width="207" y="86" x="544"/><g><rect fill="#ffffff" fill-opacity="0" stroke-width="0" stroke="none" height="14" width="207" y="86" x="544"/><g><text fill="#222222" stroke-width="0" stroke="none" font-size="14" font-family="Arial" y="97.9" x="563" text-anchor="start">Instagram</text></g><circle fill="#3366cc" stroke-width="0" stroke="none" r="7" cy="93" cx="551"/></g><g><rect fill="#ffffff" fill-opacity="0" stroke-width="0" stroke="none" height="14" width="207" y="109" x="544"/><g><text fill="#222222" stroke-width="0" stroke="none" font-size="14" font-family="Arial" y="120.9" x="563" text-anchor="start">YouTube</text></g><circle fill="#dc3912" stroke-width="0" stroke="none" r="7" cy="116" cx="551"/></g><g><rect fill="#ffffff" fill-opacity="0" stroke-width="0" stroke="none" height="14" width="207" y="132" x="544"/><g><text fill="#222222" stroke-width="0" stroke="none" font-size="14" font-family="Arial" y="143.9" x="563" text-anchor="start">Subscription</text></g><circle fill="#ff9900" stroke-width="0" stroke="none" r="7" cy="139" cx="551"/></g><g><rect fill="#ffffff" fill-opacity="0" stroke-width="0" stroke="none" height="14" width="207" y="155" x="544"/><g><text fill="#222222" stroke-width="0" stroke="none" font-size="14" font-family="Arial" y="166.9" x="563" text-anchor="start">Sales</text></g><circle fill="#109618" stroke-width="0" stroke="none" r="7" cy="162" cx="551"/></g><g><rect fill="#ffffff" fill-opacity="0" stroke-width="0" stroke="none" height="14" width="207" y="178" x="544"/><g><text fill="#222222" stroke-width="0" stroke="none" font-size="14" font-family="Arial" y="189.9" x="563" text-anchor="start">Services</text></g><circle fill="#990099" stroke-width="0" stroke="none" r="7" cy="185" cx="551"/></g></g><g><path fill="#3366cc" stroke-width="1" stroke="#ffffff" d="M336,226L336,87A139,139,0,0,1,396.30983973734055,100.76532736156372L336,226A0,0,0,0,0,336,226"/><text fill="#ffffff" stroke-width="0" stroke="none" font-size="14" font-family="Arial" y="119.9297614890918" x="345.3282327916333" text-anchor="start">7.1%</text></g><g><path fill="#dc3912" stroke-width="1" stroke="#ffffff" d="M336,226L396.30983973734055,100.76532736156372A139,139,0,0,1,461.2346726384362,165.6901602626594L336,226A0,0,0,0,0,336,226"/><text fill="#ffffff" stroke-width="0" stroke="none" font-size="14" font-family="Arial" y="156.2509784512613" x="390.6490215487387" text-anchor="start">10.7%</text></g><g><path fill="#ff9900" stroke-width="1" stroke="#ffffff" d="M336,226L461.2346726384363,165.69016026265945A139,139,0,0,1,444.6745760630561,312.665082458364L336,226A0,0,0,0,0,336,226"/><text fill="#ffffff" stroke-width="0" stroke="none" font-size="14" font-family="Arial" y="242.57263072324034" x="419.59746300743194" text-anchor="start">17.9%</text></g><g><path fill="#990099" stroke-width="1" stroke="#ffffff" d="M336,226L227.32542393694388,312.66508245836394A139,139,0,0,1,336,87L336,226A0,0,0,0,0,336,226"/><text fill="#ffffff" stroke-width="0" stroke="none" font-size="14" font-family="Arial" y="185.81038967752167" x="222.37045940226477" text-anchor="start">35.7%</text></g><g><path fill="#109618" stroke-width="1" stroke="#ffffff" d="M336,226L444.6745760630561,312.665082458364A139,139,0,0,1,227.32542393694388,312.66508245836394L336,226A0,0,0,0,0,336,226"/><text fill="#ffffff" stroke-width="0" stroke="none" font-size="14" font-family="Arial" y="347.2896267925306" x="316" text-anchor="start">28.6%</text></g><g/></svg>