<svg aria-label="A chart." style="max-height: 500px" xmlns:xlink="http://www.w3.org/1999/xlink" xmlns="http://www.w3.org/2000/svg" viewBox="176.214 76.2228 411.4392 255.7152" width="411.4392" height="255.7152"><defs id="_ABSTRACT_RENDERER_ID_2"/><rect fill="#ffffff" stroke-width="0" stroke="none" height="409.8" width="819.6" y="0" x="0"/><g><text fill="#000000" stroke-width="0" stroke="none" font-weight="bold" font-size="25" font-family="Arial" y="53.25" x="137" text-anchor="start">Title</text><rect fill="#ffffff" fill-opacity="0" stroke-width="0" stroke="none" height="25" width="546" y="32" x="137"/></g><g><rect fill="#ffffff" fill-opacity="0" stroke-width="0" stroke="none" height="55" width="188" y="78" x="495"/><g><rect fill="#ffffff" fill-opacity="0" stroke-width="0" stroke="none" height="13" width="188" y="78" x="495"/><g><text fill="#222222" stroke-width="0" stroke="none" font-size="13" font-family="Arial" y="89.05" x="513" text-anchor="start">Salaries</text></g><circle fill="#3366cc" stroke-width="0" stroke="none" r="6.5" cy="84.5" cx="501.5"/></g><g><rect fill="#ffffff" fill-opacity="0" stroke-width="0" stroke="none" height="13" width="188" y="99" x="495"/><g><text fill="#222222" stroke-width="0" stroke="none" font-size="13" font-family="Arial" y="110.05" x="513" text-anchor="start">Utilities</text></g><circle fill="#dc3912" stroke-width="0" stroke="none" r="6.5" cy="105.5" cx="501.5"/></g><g><rect fill="#ffffff" fill-opacity="0" stroke-width="0" stroke="none" height="13" width="188" y="120" x="495"/><g><text fill="#222222" stroke-width="0" stroke="none" font-size="13" font-family="Arial" y="131.05" x="513" text-anchor="start">Rent</text></g><circle fill="#ff9900" stroke-width="0" stroke="none" r="6.5" cy="126.5" cx="501.5"/></g></g><g><path fill="#ff9900" stroke-width="1" stroke="#ffffff" d="M306,205L231.93905821114836,103.06385870875664A126,126,0,0,1,306,79L306,205A0,0,0,0,0,306,205"/><text fill="#ffffff" stroke-width="0" stroke="none" font-size="13" font-family="Arial" y="112.23271532144082" x="261.37969742403124" text-anchor="start">10%</text></g><g><path fill="#dc3912" stroke-width="1" stroke="#ffffff" d="M306,205L180,205.00000000000003A126,126,0,0,1,231.93905821114836,103.06385870875664L306,205A0,0,0,0,0,306,205"/><text fill="#ffffff" stroke-width="0" stroke="none" font-size="13" font-family="Arial" y="164.8474063773656" x="205.2662201328901" text-anchor="start">15%</text></g><g><path fill="#3366cc" stroke-width="1" stroke="#ffffff" d="M306,205L306,79A126,126,0,1,1,180,205.00000000000003L306,205A0,0,0,1,0,306,205"/><text fill="#ffffff" stroke-width="0" stroke="none" font-size="13" font-family="Arial" y="279.63694320300596" x="363.086943203006" text-anchor="start">75%</text></g><g/></svg>